{"title":"Laddaland 2011 DVDRip English Dubbed Xvid LKRG","uid":10553504,"size":1176917990,"categoryP":"video","categoryS":"movies","magnet":"?xt=urn:btih:e1124fe579c42beb6847c6a2ea478893531db432&amp;dn=Laddaland+2011+DVDRip+English+Dubbed+Xvid+LKRG&amp;tr=udp%3A%2F%2Ftracker.openbittorrent.com%3A80&amp;tr=udp%3A%2F%2Fopen.demonii.com%3A1337&amp;tr=udp%3A%2F%2Ftracker.coppersurfer.tk%3A6969&amp;tr=udp%3A%2F%2Fexodus.desync.com%3A6969","seeders":5,"leechers":3,"uploader":".BONE.","files":2,"time":1405363305,"description":"PLOT\n\nWhen a family moves to Laddaland, an upscale housing development\nwith large, beautiful homes, they discover life in their new neighborhood isn't so perfect when\nthey encounter a series of terrifying, paranormal events that drives the family to the edge of\ninsanity.\n\nRuntime ..........: 1h 57mn\nFile Size ........: 1.10 GB\nResolution .......: 720 x 480 &lt;a href=&quot;\nhttp://www.imdb.com/title/tt2063782/&quot; rel=&quot;nofollow&quot; target=&quot;_NEW&quot;&gt;\nhttp://www.imdb.com/title/tt2063782/&lt;/a&gt;\nGenre ............: Horror\nLanguage .........: English\nSubtitles ........: None\nComplete name : Laddaland 2011 DVDRip English Dubbed Xvid LKRGLLand_LKRG.avi\nFormat : AVI\nFormat/Info : Audio Video Interleave\nFile size : 1.10 GiB\nDuration : 1h 57mn\nOverall bit rate : 1 335 Kbps\nWriting application : VirtualDubMod 1.5.10.2 (build 2540/release)\nWriting library : VirtualDubMod build 2540/release\nVideo\nID : 0\nFormat : MPEG-4 Visual\nFormat profile : Advanced Simple@L5\nFormat settings, BVOP : 2\nFormat settings, QPel : No\nFormat settings, GMC : No warppoints\nFormat settings, Matrix : Default (H.263)\nMuxing mode : Packed bitstream\nCodec ID : XVID\nCodec ID/Hint : XviD\nDuration : 1h 57mn\nBit rate : 875 Kbps\nWidth : 720 pixels\nHeight : 480 pixels\nDisplay aspect ratio : 16:9\nFrame rate : 29.970 fps\nStandard : NTSC\nColor space : YUV\nChroma subsampling : 4:2:0\nBit depth : 8 bits\nScan type : Progressive\nCompression mode : Lossy\nBits/(Pixel*Frame) : 0.084\nStream size : 736 MiB (66%)\nWriting library : XviD 1.2.1 (UTC 2008-12-04)\nAudio\nID : 1\nFormat : AC-3\nFormat/Info : Audio Coding 3\nMode extension : CM (complete main)\nFormat settings, Endianness : Big\nCodec ID : 2000\nDuration : 1h 57mn\nBit rate mode : Constant\nBit rate : 448 Kbps\nChannel(s) : 6 channels\nChannel positions : Front: L C R, Side: L R, LFE\nSampling rate : 48.0 KHz\nBit depth : 16 bits\nCompression mode : Lossy\nStream size : 377 MiB (34%)\nAlignment : Split accross interleaves\nInterleave, duration : 33 ms (1.00 video frame)\nInterleave, preload duration : 500 ms","torrent":{"xt":"urn:btih:e1124fe579c42beb6847c6a2ea478893531db432","amp;dn":"Laddaland+2011+DVDRip+English+Dubbed+Xvid+LKRG","amp;tr":["udp%3A%2F%2Ftracker.openbittorrent.com%3A80","udp%3A%2F%2Fopen.demonii.com%3A1337","udp%3A%2F%2Ftracker.coppersurfer.tk%3A6969","udp%3A%2F%2Fexodus.desync.com%3A6969"],"infoHash":"e1124fe579c42beb6847c6a2ea478893531db432","infoHashBuffer":{"type":"Buffer","data":[225,18,79,229,121,196,43,235,104,71,198,162,234,71,136,147,83,29,180,50]},"announce":[],"urlList":[]}}